<?xml version="1.0" standalone="no"?>
<!DOCTYPE svg PUBLIC "-//W3C//DTD SVG 20010904//EN"
 "http://www.w3.org/TR/2001/REC-SVG-20010904/DTD/svg10.dtd">
<svg version="1.0" xmlns="http://www.w3.org/2000/svg"
 width="532.000000pt" height="416.000000pt" viewBox="0 0 532.000000 416.000000"
 preserveAspectRatio="xMidYMid meet">

<g transform="translate(0.000000,416.000000) scale(0.100000,-0.100000)"
fill="#000000" stroke="none">
<path d="M1975 3415 c-357 -206 -689 -398 -738 -426 l-87 -51 0 -509 0 -509
50 0 50 0 2 482 3 482 175 101 c96 55 407 234 691 398 l516 297 219 -126 c120
-70 352 -203 514 -297 162 -93 375 -215 472 -271 l178 -101 2 -480 3 -480 50
0 50 0 3 499 c1 336 -1 503 -8 511 -6 7 -50 35 -98 63 -48 27 -312 179 -587
338 -754 433 -791 454 -801 454 -5 -1 -301 -169 -659 -375z"/>
<path d="M2434 2664 l-102 -75 -6 -79 c-8 -87 -5 -100 25 -100 16 0 19 -7 19
-50 0 -40 -4 -51 -21 -60 -17 -9 -23 -8 -34 7 -8 10 -9 20 -4 21 15 6 10 32
-6 32 -8 0 -15 9 -15 20 0 11 -4 20 -10 20 -5 0 -10 -9 -10 -20 0 -15 -7 -20
-25 -20 -18 0 -25 5 -25 20 0 11 -4 20 -10 20 -5 0 -10 -9 -10 -20 0 -29 -46
-28 -53 1 -6 23 -27 17 -27 -7 0 -8 -9 -14 -20 -14 -13 0 -20 7 -20 20 0 11
-4 20 -10 20 -5 0 -10 -9 -10 -20 0 -15 -7 -20 -25 -20 -18 0 -25 5 -25 20 0
11 -4 20 -10 20 -5 0 -10 -9 -10 -19 0 -10 -7 -22 -16 -25 -13 -5 -14 -9 -5
-20 9 -10 9 -16 1 -21 -6 -4 -9 -13 -6 -21 3 -8 4 -14 3 -14 -1 0 -22 6 -47
14 -51 15 -64 40 -26 50 17 4 28 16 32 33 8 31 -16 181 -36 228 -5 11 -10 29
-12 39 -4 28 -34 44 -55 30 -24 -14 -66 -174 -64 -239 2 -39 7 -54 26 -71 38
-33 31 -41 -27 -33 -29 4 -61 8 -70 8 -25 1 -22 16 7 45 21 21 24 31 19 78 -7
68 -50 191 -74 213 -15 14 -23 15 -33 7 -22 -18 -42 -120 -42 -210 0 -81 1
-85 30 -108 l30 -24 -30 0 c-16 0 -54 -3 -82 -6 -50 -6 -53 -5 -53 15 0 12 7
24 15 28 9 3 23 19 31 35 15 29 13 47 -17 126 -5 13 -9 41 -9 62 0 29 -5 42
-19 50 -27 14 -24 16 -60 -40 -42 -65 -62 -187 -36 -226 8 -13 22 -24 31 -24
10 0 14 -7 12 -22 -2 -19 -12 -25 -50 -32 -46 -9 -48 -11 -48 -44 0 -31 2 -34
23 -28 152 45 181 49 327 43 98 -3 169 -12 221 -25 210 -56 384 -148 501 -265
60 -60 72 -68 101 -65 30 3 32 6 39 55 4 28 19 82 33 118 27 73 31 100 14 89
-16 -9 -78 -142 -85 -181 -3 -18 -9 -33 -13 -33 -6 0 -51 66 -51 75 0 12 71
116 104 153 35 39 36 40 20 71 -27 54 3 121 60 135 83 21 150 -60 115 -138
-11 -23 -8 -30 32 -74 24 -27 58 -72 76 -100 l32 -51 -21 -28 c-12 -15 -25
-32 -29 -36 -4 -5 -16 20 -28 56 -22 65 -78 164 -87 154 -3 -3 8 -45 24 -94
17 -48 33 -107 37 -130 6 -41 8 -43 41 -43 30 0 43 9 90 60 93 100 252 193
424 248 138 44 229 56 377 49 113 -5 162 -13 251 -41 20 -7 22 -4 22 27 0 33
-2 35 -44 41 -56 9 -66 35 -24 66 28 21 29 22 23 96 -3 42 -13 90 -21 107 -24
46 -54 87 -64 87 -21 0 -40 -34 -40 -74 0 -23 -4 -46 -9 -52 -5 -5 -12 -34
-16 -64 -6 -51 -5 -57 19 -79 14 -14 26 -33 26 -44 0 -18 -5 -19 -52 -13 -29
3 -63 6 -75 6 -28 0 -30 16 -3 25 25 8 37 54 34 133 -3 62 -24 152 -43 181
-16 25 -40 3 -71 -66 -21 -45 -33 -90 -37 -139 -6 -70 -5 -73 22 -98 l27 -26
-23 -8 c-36 -14 -129 -22 -129 -12 0 5 14 22 30 38 27 28 30 36 27 84 -4 54
-29 153 -51 198 -7 16 -20 25 -35 25 -20 0 -27 -9 -43 -60 -49 -150 -58 -214
-34 -250 9 -14 23 -25 32 -25 33 0 8 -33 -36 -46 -55 -17 -53 -16 -45 -4 4 6
1 17 -5 25 -9 11 -9 15 -1 15 6 0 11 7 11 15 0 8 -4 15 -8 15 -5 0 -14 10 -20
23 l-11 22 -7 -22 c-3 -13 -14 -23 -24 -23 -9 0 -22 10 -28 23 l-11 22 -7 -22
c-8 -29 -44 -31 -44 -3 0 11 -4 20 -10 20 -5 0 -10 -9 -10 -20 0 -29 -46 -28
-53 1 -6 23 -27 17 -27 -7 0 -22 -37 -17 -43 6 -3 11 -10 20 -16 20 -6 0 -11
-9 -11 -20 0 -11 -4 -20 -10 -20 -5 0 -10 -7 -10 -15 0 -8 4 -15 10 -15 5 0 2
-9 -7 -19 -16 -19 -41 -18 -55 3 -4 6 -8 30 -8 53 0 36 3 42 23 45 20 3 22 9
25 81 l3 79 -43 39 c-23 21 -72 59 -109 84 l-66 45 -99 0 -99 0 -101 -76z
m281 -24 c4 -6 -25 -10 -80 -10 -55 0 -84 4 -80 10 3 6 39 10 80 10 41 0 77
-4 80 -10z m49 -35 c19 -14 18 -15 -17 -15 -20 0 -37 5 -37 10 0 6 -32 10 -75
10 -43 0 -75 -4 -75 -10 0 -5 -14 -10 -31 -10 -27 0 -30 2 -19 15 18 21 226
21 254 0z m-946 -107 c-4 -9 -8 -31 -8 -49 0 -18 -3 -30 -6 -26 -3 3 -2 41 2
84 7 64 9 72 14 43 3 -19 3 -43 -2 -52z m749 59 c-2 -7 -29 -14 -60 -17 -119
-11 -61 -20 127 -20 129 0 195 3 191 10 -3 6 -31 10 -61 10 -40 0 -54 4 -54
14 0 9 15 15 48 18 42 3 50 0 80 -29 17 -18 32 -36 32 -40 0 -4 -103 -8 -230
-8 -169 0 -230 3 -230 12 0 6 13 24 28 40 25 25 34 28 81 25 33 -3 51 -8 48
-15z m1110 -29 c-3 -8 -6 -5 -6 6 -1 11 2 17 5 13 3 -3 4 -12 1 -19z m-205
-102 c-9 -18 -10 -17 -9 14 0 19 -3 51 -6 70 -5 24 -2 20 9 -14 11 -35 13 -55
6 -70z m206 14 c0 -22 -1 -22 -8 5 -4 17 -8 39 -8 50 0 16 2 15 8 -5 4 -14 8
-36 8 -50z m-2068 5 c-7 -45 -7 -46 -9 -13 -1 32 8 74 14 66 1 -2 -1 -25 -5
-53z m2267 33 c-3 -8 -6 -5 -6 6 -1 11 2 17 5 13 3 -3 4 -12 1 -19z m-2480
-30 c-3 -7 -5 -2 -5 12 0 14 2 19 5 13 2 -7 2 -19 0 -25z m1337 26 c13 -5 16
-20 14 -78 l-2 -71 -3 60 c-3 41 -9 64 -20 73 -25 18 -158 16 -177 -4 -13 -12
-16 -13 -16 -1 0 7 3 17 7 20 8 9 176 9 197 1z m-234 -14 c0 -5 -10 -10 -22
-10 -13 0 -33 -3 -45 -6 -17 -5 -23 -2 -23 10 0 12 10 16 45 16 25 0 45 -4 45
-10z m370 -6 c0 -12 -6 -15 -22 -10 -13 3 -35 6 -50 6 -16 0 -28 5 -28 10 0 6
23 10 50 10 39 0 50 -3 50 -16z m-370 -39 c0 -11 -12 -15 -50 -15 -46 0 -60 7
-43 23 3 4 26 7 50 7 32 0 43 -4 43 -15z m370 0 c0 -11 -12 -15 -50 -15 -38 0
-50 4 -50 15 0 11 12 15 50 15 38 0 50 -4 50 -15z m-370 -45 c0 -5 -22 -10
-50 -10 -27 0 -50 5 -50 10 0 6 23 10 50 10 28 0 50 -4 50 -10z m370 0 c0 -5
-22 -10 -50 -10 -27 0 -50 5 -50 10 0 6 23 10 50 10 28 0 50 -4 50 -10z m-380
-39 c-8 -5 -32 -11 -52 -15 -31 -6 -38 -4 -38 9 0 12 12 15 53 15 33 0 47 -4
37 -9z m380 -6 c0 -13 -7 -15 -37 -9 -65 11 -73 23 -15 24 40 0 52 -3 52 -15z
m-817 -2 c-7 -2 -19 -2 -25 0 -7 3 -2 5 12 5 14 0 19 -2 13 -5z m64 1 c-3 -3
-12 -4 -19 -1 -8 3 -5 6 6 6 11 1 17 -2 13 -5z m76 -1 c-7 -2 -21 -2 -30 0
-10 3 -4 5 12 5 17 0 24 -2 18 -5z m70 0 c-7 -2 -21 -2 -30 0 -10 3 -4 5 12 5
17 0 24 -2 18 -5z m780 0 c-7 -2 -19 -2 -25 0 -7 3 -2 5 12 5 14 0 19 -2 13
-5z m70 0 c-7 -2 -19 -2 -25 0 -7 3 -2 5 12 5 14 0 19 -2 13 -5z m140 0 c-7
-2 -19 -2 -25 0 -7 3 -2 5 12 5 14 0 19 -2 13 -5z m-1203 -48 c0 -8 -7 -15
-15 -15 -16 0 -20 12 -8 23 11 12 23 8 23 -8z m62 -26 l-9 -24 -7 23 c-8 26 2
48 15 35 6 -6 6 -19 1 -34z m76 19 c-4 -29 -38 -38 -38 -10 0 22 8 32 27 32 9
0 13 -8 11 -22z m72 12 c0 -5 -7 -10 -15 -10 -8 0 -15 5 -15 10 0 6 7 10 15
10 8 0 15 -4 15 -10z m227 -45 c-24 -25 -59 -73 -76 -105 l-32 -59 -44 32
c-24 18 -44 36 -44 40 -2 25 113 137 126 123 2 -2 -8 -21 -22 -42 -24 -35 -28
-53 -13 -57 4 -1 24 23 45 53 28 40 47 56 68 61 17 3 32 4 34 2 2 -1 -17 -23
-42 -48z m558 45 c3 -5 -3 -10 -14 -10 -12 0 -21 5 -21 10 0 6 6 10 14 10 8 0
18 -4 21 -10z m75 -16 c0 -20 -4 -25 -16 -20 -9 3 -18 6 -20 6 -2 0 -4 9 -4
20 0 13 7 20 20 20 15 0 20 -7 20 -26z m60 1 c0 -14 -4 -25 -10 -25 -5 0 -10
11 -10 25 0 14 5 25 10 25 6 0 10 -11 10 -25z m70 10 c0 -8 -7 -15 -15 -15 -8
0 -15 7 -15 15 0 8 7 15 15 15 8 0 15 -7 15 -15z m-406 -49 c19 -30 39 -57 45
-60 21 -13 11 30 -14 64 -14 18 -23 36 -20 38 11 11 101 -69 127 -113 5 -9 -8
-25 -39 -48 l-47 -35 -38 67 c-21 36 -57 83 -81 103 l-42 38 37 0 c34 0 40 -5
72 -54z m186 -10 c29 -14 47 -27 40 -31 -6 -4 -17 -2 -25 5 -11 9 -14 7 -17
-11 -3 -19 -6 -16 -30 20 -15 22 -25 41 -23 41 1 0 26 -11 55 -24z m-755 -20
c-17 -26 -35 -34 -35 -17 0 5 -9 7 -20 4 -11 -3 -20 -1 -20 5 0 9 81 43 88 36
2 -1 -4 -14 -13 -28z"/>
<path d="M2580 2338 c0 -12 8 -18 21 -18 11 0 18 4 14 9 -7 13 10 22 28 15 31
-11 31 -57 1 -68 -9 -3 -25 -1 -36 5 -16 9 -19 8 -16 -3 6 -17 42 -22 67 -8
26 13 27 51 3 73 -24 22 -82 18 -82 -5z"/>
<path d="M1515 2229 c-34 -5 -92 -19 -130 -31 -57 -19 -71 -27 -73 -46 -7 -50
0 -52 95 -26 169 46 349 47 517 4 44 -12 98 -30 119 -41 21 -10 47 -19 59 -19
21 0 21 0 2 21 -44 49 -230 119 -369 139 -81 11 -136 11 -220 -1z"/>
<path d="M3529 2230 c-137 -23 -324 -95 -363 -138 -19 -22 -19 -22 3 -22 12 0
39 9 59 19 40 20 123 44 214 62 120 22 328 7 460 -35 25 -8 49 -12 52 -9 3 4
6 21 6 38 0 30 -3 33 -54 49 -127 40 -271 54 -377 36z"/>
<path d="M2615 2198 c-2 -7 -6 -56 -10 -108 -3 -52 -8 -112 -12 -132 -5 -34
-3 -38 16 -38 20 0 21 4 21 145 0 132 -4 167 -15 133z"/>
<path d="M2640 2065 c0 -141 1 -145 21 -145 21 0 21 3 15 93 -10 144 -18 197
-27 197 -5 0 -9 -65 -9 -145z"/>
<path d="M1617 2080 c-64 -10 -108 -29 -115 -47 -3 -10 22 -12 115 -7 142 8
233 -8 362 -63 64 -27 104 -37 156 -40 l70 -3 -30 25 c-115 98 -381 163 -558
135z"/>
<path d="M3438 2080 c-116 -21 -284 -88 -348 -140 l-25 -20 63 0 c51 0 79 7
157 40 127 55 222 72 365 68 70 -2 117 1 120 7 15 31 -229 64 -332 45z"/>
<path d="M2200 2022 c0 -5 27 -30 60 -55 49 -39 67 -47 101 -47 36 0 40 2 29
15 -27 32 -133 95 -161 95 -16 0 -29 -4 -29 -8z"/>
<path d="M2964 1992 c-32 -21 -65 -46 -73 -55 -12 -15 -10 -17 26 -17 28 0 48
7 69 25 16 15 41 33 57 43 15 9 27 22 27 29 0 24 -47 13 -106 -25z"/>
<path d="M1484 1980 c-61 -9 -151 -38 -159 -51 -8 -12 131 -12 175 1 19 6 68
15 108 20 40 5 79 13 85 17 31 19 -108 28 -209 13z"/>
<path d="M3593 1984 c-27 -12 -11 -22 45 -29 31 -3 82 -13 113 -21 63 -16 219
-20 204 -5 -25 23 -155 53 -250 57 -55 2 -106 1 -112 -2z"/>
<path d="M650 1910 l0 -50 55 0 55 0 0 50 0 50 -55 0 -55 0 0 -50z"/>
<path d="M1820 1943 c44 -20 146 -31 136 -15 -10 16 -74 32 -126 31 l-45 -1
35 -15z"/>
<path d="M3353 1947 c-17 -7 -35 -16 -40 -21 -13 -14 99 0 137 17 l35 15 -50
0 c-27 0 -64 -5 -82 -11z"/>
<path d="M4510 1910 l0 -50 50 0 50 0 0 50 0 50 -50 0 -50 0 0 -50z"/>
<path d="M801 1782 c-63 -32 -75 -60 -79 -183 -6 -153 2 -192 44 -234 30 -31
41 -35 86 -35 45 0 54 4 89 39 33 32 39 45 39 80 l0 41 -40 0 c-36 0 -40 -3
-40 -24 0 -45 -50 -72 -78 -44 -13 13 -18 242 -6 272 7 19 55 21 72 4 7 -7 12
-25 12 -40 0 -26 3 -28 40 -28 39 0 40 1 40 35 0 96 -97 159 -179 117z"/>
<path d="M2225 1784 c-22 -7 -41 -14 -42 -14 -1 0 -11 -16 -23 -35 -20 -32
-21 -45 -18 -186 l3 -151 37 -34 c32 -29 45 -34 87 -34 56 0 90 22 115 74 24
50 23 267 -2 315 -32 64 -91 89 -157 65z m85 -99 c16 -41 11 -226 -6 -252 -18
-28 -59 -30 -74 -4 -15 28 -13 254 2 269 7 7 25 12 40 12 21 0 31 -6 38 -25z"/>
<path d="M3260 1787 c-19 -7 -44 -27 -57 -46 -21 -32 -23 -44 -23 -184 l0
-149 39 -39 c32 -33 45 -39 80 -39 92 0 132 47 139 162 l5 78 -66 0 c-70 0
-79 -6 -70 -53 4 -18 12 -27 24 -27 14 0 19 -7 19 -28 0 -34 -16 -52 -47 -52
-35 0 -43 29 -43 157 0 125 6 143 46 143 26 0 41 -16 46 -50 3 -22 8 -25 43
-25 40 0 40 0 39 37 -3 87 -89 144 -174 115z"/>
<path d="M1096 1578 c-21 -117 -38 -220 -39 -228 -2 -11 8 -15 38 -15 34 0 40
3 43 23 3 19 9 22 47 22 38 0 44 -3 47 -22 2 -19 10 -24 41 -26 47 -4 47 -13
2 243 -19 110 -35 203 -35 207 0 5 -24 8 -53 8 l-54 0 -37 -212z m109 -67 c7
-61 7 -61 -19 -61 -30 0 -32 10 -14 109 9 56 12 62 19 39 4 -14 10 -54 14 -87z"/>
<path d="M1402 1563 l3 -228 38 -3 c33 -3 37 -1 38 20 1 13 4 86 8 163 l6 140
23 -37 c13 -21 29 -38 35 -38 7 0 23 17 37 38 l25 37 3 -162 2 -163 40 0 40 0
0 230 0 230 -44 0 c-40 0 -46 -3 -70 -40 -14 -22 -30 -40 -34 -40 -4 0 -18 18
-32 40 -23 38 -28 40 -73 40 l-47 0 2 -227z"/>
<path d="M1808 1668 c-1 -67 -2 -172 0 -231 l3 -108 37 3 37 3 3 83 3 82 37 0
c119 0 184 161 102 253 -28 31 -31 32 -123 35 l-95 4 -4 -124z m168 17 c28
-42 -6 -105 -58 -105 -28 0 -28 0 -28 65 l0 65 35 0 c26 0 39 -6 51 -25z"/>
<path d="M2640 1560 l0 -230 79 0 c65 0 84 4 112 23 57 37 69 75 69 210 0 190
-29 227 -177 227 l-83 0 0 -230z m164 128 c12 -17 16 -49 16 -128 0 -100 -2
-108 -24 -129 -15 -14 -33 -21 -48 -19 -23 3 -23 4 -26 151 l-3 147 35 0 c25
0 39 -7 50 -22z"/>
<path d="M3000 1560 l0 -230 40 0 40 0 0 230 0 230 -40 0 -40 0 0 -230z"/>
<path d="M3524 1777 c-2 -7 -3 -109 -2 -227 l3 -215 43 -3 42 -3 0 230 0 231
-40 0 c-24 0 -43 -5 -46 -13z"/>
<path d="M3690 1750 l0 -40 45 0 45 0 0 -191 0 -190 38 3 37 3 3 187 2 187 43
3 c41 3 42 4 45 41 l3 37 -130 0 -131 0 0 -40z"/>
<path d="M4050 1783 c0 -5 -18 -105 -39 -223 -21 -118 -36 -219 -31 -223 4 -5
23 -7 41 -5 26 2 35 8 37 26 3 19 9 22 47 22 38 0 44 -3 47 -22 2 -19 10 -24
41 -26 30 -3 37 0 37 15 0 10 -16 110 -35 222 -19 112 -35 208 -35 212 0 5
-25 9 -55 9 -30 0 -55 -3 -55 -7z m72 -278 c3 -46 1 -50 -21 -53 -24 -4 -24
-3 -17 60 4 34 10 74 14 88 5 24 6 23 13 -10 4 -19 9 -57 11 -85z"/>
<path d="M4322 1563 l3 -228 110 0 110 0 3 37 3 37 -73 3 -73 3 0 185 0 185
-43 3 -42 3 2 -228z"/>
<path d="M650 1170 l0 -50 55 0 55 0 0 50 0 50 -55 0 -55 0 0 -50z"/>
<path d="M4510 1170 l0 -50 50 0 50 0 0 50 0 50 -50 0 -50 0 0 -50z"/>
<path d="M1210 1192 c0 -13 51 -22 127 -22 47 0 64 3 61 13 -5 14 -188 23
-188 9z"/>
<path d="M1540 1191 c0 -5 14 -11 31 -15 41 -8 2097 -8 2138 0 17 4 31 10 31
15 0 5 -478 9 -1100 9 -622 0 -1100 -4 -1100 -9z"/>
<path d="M3877 1193 c-18 -17 -2 -23 62 -23 78 0 131 9 131 21 0 10 -183 12
-193 2z"/>
<path d="M1270 1155 c0 -5 44 -31 430 -253 692 -398 928 -532 937 -532 6 0
127 67 269 149 817 469 1071 615 1089 627 17 12 7 14 -76 14 l-95 0 -199 -114
c-241 -136 -764 -437 -893 -513 l-94 -55 -291 168 c-161 92 -427 246 -593 341
l-301 173 -92 0 c-50 0 -91 -2 -91 -5z"/>
<path d="M1606 1150 c9 -9 518 -304 849 -493 77 -43 149 -85 161 -92 19 -12
28 -9 85 24 35 21 267 154 514 296 248 142 454 262 459 267 6 4 -460 8 -1034
8 -683 0 -1041 -3 -1034 -10z m1109 -94 c25 -11 35 -21 35 -37 0 -20 -3 -21
-37 -14 -62 11 -87 7 -110 -20 -33 -37 -31 -89 4 -121 28 -26 35 -26 118 -12
14 2 21 -3 23 -19 4 -28 -29 -43 -93 -43 -35 0 -52 6 -79 30 -82 72 -68 187
29 231 49 23 66 23 110 5z"/>
</g>
</svg>
